<?xml version="1.0" encoding="utf-8"?>
<!-- Generator: Adobe Illustrator 25.2.1, SVG Export Plug-In . SVG Version: 6.00 Build 0)  -->
<svg version="1.1" id="圖層_1" xmlns="http://www.w3.org/2000/svg" xmlns:xlink="http://www.w3.org/1999/xlink" x="0px" y="0px"
	 viewBox="0 0 400 400" style="enable-background:new 0 0 400 400;" xml:space="preserve">
<style type="text/css">
	.st0{fill:#B9E6F1;}
	.st1{fill:#031424;}
</style>
<g>
	<g>
		<g>
			<path class="st0" d="M186.3,101.1L186.3,101.1c-0.9,4.3-1.7,9.4-3.4,13.7l-4.3,16.3h16.3l-4.3-16.3
				C188.8,110.5,188,105.4,186.3,101.1z"/>
			<path class="st0" d="M263.2,51.5H136.7c-4.3,0-8.6,4.3-8.6,8.6v126.6c0,5.1,4.3,8.6,8.6,8.6h126.6c5.1,0,8.6-4.3,8.6-8.6V60
				C272.7,55.8,268.4,51.5,263.2,51.5z M203.4,161.8l-6-18.8H176l-5.1,18.8h-17.1L176,88.3h21.4l23.1,73.6L203.4,161.8L203.4,161.8z
				 M246.1,161.8h-16.3v-53h16.3V161.8z M237.6,101.9c-5.1,0-8.6-3.4-8.6-8.6s3.4-8.6,8.6-8.6c5.1,0,8.6,3.4,8.6,8.6
				C247,98.5,242.7,101.9,237.6,101.9z"/>
		</g>
	</g>
	<g>
		<g>
			<path class="st0" d="M265.2,254.2c-3.3,0-5.8,0-7.4,0.8v23.1c1.7,0.8,3.3,0.8,6.6,0.8c9.9,0,15.7-5,15.7-13.2
				C279.2,258.3,274.3,254.2,265.2,254.2z"/>
			<path class="st0" d="M351.9,212.9H225.5c-5,0-9.1,4.1-9.1,9.1v126.4c0,5,4.1,9.1,9.1,9.1h126.4c5,0,9.1-4.1,9.1-9.1V222
				C361,217,356.9,212.9,351.9,212.9z M290,284c-5.8,5.8-14.9,8.3-25.6,8.3c-2.5,0-4.1,0-5.8,0v28.1h-18.2v-78.5
				c5.8-0.8,13.2-1.7,24-1.7c10.7,0,19,2.5,24,6.6s8.3,10.7,8.3,18.2S294.9,279.8,290,284z M316.4,322c-7.4,0-14-1.7-19-4.1
				l3.3-13.2c3.3,1.7,9.9,4.1,15.7,4.1c5.8,0,7.4-1.7,7.4-5s-1.7-4.1-8.3-6.6c-11.6-4.1-16.5-10.7-16.5-17.4c0-10.7,9.1-19,23.1-19
				c6.6,0,12.4,1.7,16.5,3.3l-3.3,12.4c-2.5-1.7-7.4-3.3-12.4-3.3c-4.1,0-6.6,1.7-6.6,5c0,2.5,2.5,4.1,9.1,6.6
				c10.7,4.1,15.7,9.1,15.7,18.2C342,313.7,332.9,322,316.4,322z"/>
		</g>
	</g>
</g>
<path class="st0" d="M168.7,357.1H51.2c-7.2,0-13.1-5.9-13.1-13.1V226.5c0-7.2,5.9-13.1,13.1-13.1h117.5c7.2,0,13.1,5.9,13.1,13.1
	V344C181.8,351.2,175.9,357.1,168.7,357.1z"/>
<path class="st1" d="M52.5,254.1c0.1,0.4,20.4,33.3,20.4,33.3l-21.2,33.8H68L82.5,296l14.1,25.2h18.7l-22.3-34.6l20.8-32.9H98
	L83.6,279l-14.1-25L52.5,254.1z"/>
<path class="st1" d="M146.8,248.4h14.9l0.2,72.9c0,0-46.4,12.7-49.2-25.8c0-13.8,12.1-28.5,34-26.1
	C146.8,251.4,146.8,248.4,146.8,248.4z"/>
<path class="st0" d="M127.4,292.9c-1.7,21.6,19.2,16.3,19.2,16.3v-27.6C146.6,281.6,130.2,277.9,127.4,292.9z"/>
</svg>
