<?xml version="1.0" encoding="utf-8"?>
<!-- Generator: Adobe Illustrator 25.2.1, SVG Export Plug-In . SVG Version: 6.00 Build 0)  -->
<svg version="1.1" id="圖層_1" xmlns="http://www.w3.org/2000/svg" xmlns:xlink="http://www.w3.org/1999/xlink" x="0px" y="0px"
	 viewBox="0 0 512 512" style="enable-background:new 0 0 512 512;" xml:space="preserve">
<style type="text/css">
	.st0{fill:#B9E6F1;}
</style>
<path class="st0" d="M466.9,30c-23.6,0-404.5,0-427.4,0c-7.8,0-14,6.3-14,14.1v426.3c0,7.7,6.2,14.1,14,14.1h427.4
	c7.8,0,14-6.3,14-14.1c0-23.2,0-409.3,0-426.4C480.9,36.3,474.7,30,466.9,30z M464.6,103H184.5l-16.2-55.7h296.3L464.6,103
	L464.6,103z M464.6,468H43.7V47.3h108.5l18.8,58.9c2,6.1,7.6,10.3,14.1,10.3h279.5V468L464.6,468z"/>
<path class="st0" d="M126.2,75.3c0-3.9-5.6-7-12.6-7H81.7c-7,0-12.6,3.2-12.6,7c0,3.9,5.6,7,12.6,7h31.9
	C120.6,82.4,126.2,79.2,126.2,75.3z"/>
<g>
	<path class="st0" d="M291.4,294c0-12.5-10.2-22.6-22.6-22.6h-7.5v-18l12.5-6.2c0.6-0.2,1.2-0.2,1.7,0.1s0.8,0.9,0.8,1.5
		c0,4.2,3.4,7.5,7.5,7.5c4.2,0,7.5-3.4,7.5-7.5c0-5.9-3-11.2-8-14.4c-5-3.1-11.2-3.4-16.4-0.7l-9.9,5l-7.6-15.3
		c7.1-3.9,11.8-11.3,11.8-19.8c0-4.2-3.4-7.5-7.5-7.5c-4.2,0-7.5,3.4-7.5,7.5s-3.4,7.5-7.5,7.5h-30.2c-4.2,0-7.5-3.4-7.5-7.5
		c0-4.2-3.4-7.5-7.5-7.5c-4.2,0-7.5,3.4-7.5,7.5c0,8.5,4.8,16,11.8,19.8l-7.6,15.3l-9.9-5c-5.2-2.6-11.4-2.4-16.4,0.7
		c-5,3.1-8,8.4-8,14.4c0,4.2,3.4,7.5,7.5,7.5c4.2,0,7.5-3.4,7.5-7.5c0-0.7,0.3-1.1,0.8-1.5c0.5-0.3,1.1-0.3,1.7-0.1l12.5,6.2v18
		h-7.8c-12.5,0-22.6,10.2-22.6,22.6c0,4.2,3.4,7.5,7.5,7.5c4.2,0,7.5-3.4,7.5-7.5s3.4-7.5,7.5-7.5h8.3c1.2,5.9,3.8,11.2,7.4,15.8
		c-5.2,5.3-8.1,12.5-8.1,20.3v1.6c0,4.2,3.4,7.5,7.5,7.5c4.2,0,7.5-3.4,7.5-7.5v-1.6c0-4.1,1.7-7.9,4.6-10.5c5.3,3,11.5,4.6,18,4.6
		s12.6-1.6,18-4.6c3,2.6,4.7,6.5,4.7,10.5v1.6c0,4.2,3.4,7.5,7.5,7.5c4.1,0,7.5-3.4,7.5-7.5v-1.6c0-7.8-3-14.9-8.1-20.3
		c3.6-4.5,6.2-9.9,7.4-15.8h8.3c4.2,0,7.5,3.4,7.5,7.5s3.4,7.5,7.5,7.5S291.4,298.1,291.4,294z M233.9,226l7.5,15.1h-35.9l7.6-15.1
		H233.9z M200.8,278.9v-22.6H216v44C207.1,297.1,200.8,288.7,200.8,278.9z M230.9,256.2h15.2v22.6c0,9.8-6.4,18.2-15.2,21.3V256.2z"
		/>
	<path class="st0" d="M223.4,165.7c-54.1,0-98.1,44-98.1,98.1s44,98.1,98.1,98.1c18.9,0,36.5-5.3,51.5-14.6c4,4,65.4,65.4,69.4,69.4
		c8.9,8.9,23.2,8.9,32,0c8.9-8.9,8.9-23.2,0-32l-69.4-69.4c9.3-15,14.6-32.6,14.6-51.5C321.6,209.7,277.5,165.7,223.4,165.7z
		 M140.4,263.8c0-45.8,37.2-83,83-83s83.1,37.2,83.1,83s-37.2,83-83,83S140.4,309.6,140.4,263.8z M365.6,406c-3,3-7.7,3-10.7,0
		L314,365l10.7-10.7l40.9,40.9C368.5,398.3,368.5,403,365.6,406z M314,343.7l-10.7,10.7l-16.2-16.2c3.9-3.3,7.4-6.8,10.7-10.7
		L314,343.7z"/>
</g>
</svg>
