<?xml version="1.0" encoding="utf-8"?>
<!-- Generator: Adobe Illustrator 25.2.1, SVG Export Plug-In . SVG Version: 6.00 Build 0)  -->
<svg version="1.1" id="圖層_1" xmlns="http://www.w3.org/2000/svg" xmlns:xlink="http://www.w3.org/1999/xlink" x="0px" y="0px"
	 viewBox="0 0 400 400" style="enable-background:new 0 0 400 400;" xml:space="preserve">
<style type="text/css">
	.st0{fill:#B9E6F1;}
	.st1{opacity:0.986;fill:#EBEBEB;fill-opacity:0;enable-background:new    ;}
	.st2{fill:none;}
</style>
<g>
	<g>
		<path class="st0" d="M149.4,181.7l48.8,13.8c0.9,0.2,2.3,0.2,3.2,0l49.2-13.8c0.9-0.2,1.7-1.2,1.7-2.1l11.3-127
			c0.1-0.9-0.6-1.7-1.5-1.7H137.9c-0.9,0-1.6,0.7-1.5,1.7l11.3,127C147.8,180.5,148.5,181.5,149.4,181.7z M161.6,77.6h76.8
			c0.9,0,1.6,0.7,1.5,1.7l-1.1,12.5c-0.1,0.9-0.9,1.7-1.8,1.7h-57.7c-0.9,0-1.6,0.7-1.5,1.7l1.1,13.1c0.1,0.9,0.9,1.7,1.8,1.7h55
			c0.9,0,1.6,0.7,1.5,1.7l-4.2,46c-0.1,0.9-0.9,1.9-1.8,2.1l-29.3,8.1c-0.9,0.2-1.6,0.5-1.6,0.5s-0.1,0.1-0.2,0.1s-0.9-0.2-1.8-0.4
			l-29.6-8.2c-0.9-0.2-1.7-1.2-1.7-2.1l-1.7-21.9c-0.1-0.9,0.6-1.7,1.5-1.7h12.5c0.9,0,1.7,0.7,1.8,1.7l0.9,9.4
			c0.1,0.9,0.9,1.9,1.8,2.1l14.5,3.9c0.9,0.2,2.3,0.2,3.2,0l14.6-3.9c0.9-0.2,1.7-1.2,1.8-2.1l1.7-17.3c0.1-0.9-0.6-1.7-1.5-1.7H166
			c-0.9,0-1.7-0.7-1.8-1.7l-4-45.1C160,78.3,160.7,77.6,161.6,77.6z"/>
	</g>
</g>
<g id="g5193" transform="translate(4.988 -113.385)">
	<path id="path5113" class="st0" d="M57.6,456.3L45.8,326.7l126.9,0.1L161,456.2l-51.9,14.6L57.6,456.3z M151.4,449.2l9.8-111h-52
		l0.4,122.5L151.4,449.2z M104.5,354.5H91.9L91.7,421l-24.5-6.7l0.1,15.2l37.2,10V354.5L104.5,354.5z"/>
	<path id="path5159" class="st1" d="M100.3,438.3c-1.6-0.5-9.7-2.7-17.9-4.9l-14.9-4v-7.5c0-7.3,0-7.5,0.7-7.2
		c0.4,0.1,5.8,1.6,12.1,3.4l11.3,3.1l0.1-33.2l0.1-33.2h12.4V397c0,33.5-0.1,42.2-0.4,42.2C103.5,439.1,102,438.7,100.3,438.3
		L100.3,438.3z"/>
	<path id="path5157" class="st2" d="M67.3,429.5l-0.1-15.2c0,0,15.6,4.4,24.5,6.7l0.2-66.4h12.6v85L67.3,429.5L67.3,429.5z"/>
	<path id="path5117" class="st0" d="M106.6,335.1h57.7l-10.9,116.4l-46.7,11.9L106.6,335.1L106.6,335.1z M148.8,430.6l3.4-41.5
		l-25.2,2.8v-22.2l26.9-0.1l1.1-15.1l-40.6,0.2l0.5,55.1l24.5-4.2l-0.3,12.3l-24.7,6.6l0.2,15L148.8,430.6L148.8,430.6z"/>
</g>
<g>
	<g>
		<path class="st0" d="M229.9,214.4l11.4,128.8l51.2,14.3l51.2-14.3l11.4-128.8L229.9,214.4L229.9,214.4z M330.7,256.5l-1.5,16.2
			l-4.3,48.5l-32.5,8.9l0,0l-32.4-9l-2.3-25.4h15.9l1.2,13.2l17.6,4.8l0,0l17.6-4.8l2.4-21.9l-55.5,0.1l-1.6-15l58.4-0.7l1.2-16
			l-61.2,0.2l-1-14.9h39.7H332L330.7,256.5z"/>
	</g>
</g>
</svg>
