<?xml version="1.0" encoding="utf-8"?>
<!-- Generator: Adobe Illustrator 25.2.1, SVG Export Plug-In . SVG Version: 6.00 Build 0)  -->
<svg version="1.1" id="Capa_1" xmlns="http://www.w3.org/2000/svg" xmlns:xlink="http://www.w3.org/1999/xlink" x="0px" y="0px"
	 viewBox="0 0 512 512" style="enable-background:new 0 0 512 512;" xml:space="preserve">
<style type="text/css">
	.st0{fill:#B9E6F1;}
</style>
<g>
	<g>
		<path class="st0" d="M487.4,370.7l-8.6-43.8c-3.4-17.6-12-33.5-24.6-46.2l-15.1-15v-51.5c9.4-3.7,16.2-13,16.2-23.7
			c0-2.9-0.5-5.7-1.4-8.3c10.7-3,18.6-12.9,18.6-24.6c0-3.1-0.5-6.1-1.5-8.8c10-3.4,17.1-13,17.1-24.1s-7.2-20.6-17.1-24.1
			c1-2.7,1.5-5.7,1.5-8.8c0-14-11.4-25.5-25.5-25.5h-51.2c4.7-5.7,7-13.3,5.6-21c-1.3-6.8-5.1-12.8-10.9-16.8s-12.8-5.4-19.7-4.1
			L327,33.1c-17.6,3.4-33.5,12-46.2,24.6l-15,15.2h-51.5c-3.7-9.4-13-16.2-23.7-16.2c-2.9,0-5.7,0.5-8.3,1.4
			c-3-10.7-12.9-18.6-24.6-18.6c-3.1,0-6.1,0.5-8.8,1.5c-3.4-9.9-13-17-24-17c-11.1,0-20.7,7.2-24.1,17.1c-2.7-1-5.7-1.5-8.8-1.5
			c-14,0-25.5,11.4-25.5,25.5v51.2c-5.7-4.7-13.3-7-21-5.6c-6.9,1.2-12.9,5-16.9,10.8c-4,5.8-5.4,12.8-4.1,19.7l8.6,43.8
			c3.4,17.6,12,33.5,24.6,46.2l15.2,15v51.5c-9.4,3.7-16.2,13-16.2,23.7c0,2.9,0.5,5.7,1.4,8.3c-10.7,3-18.6,12.9-18.6,24.6
			c0,3.1,0.5,6.1,1.5,8.8c-9.9,3.4-17,13-17,24c0,11.1,7.2,20.6,17.1,24.1c-1,2.7-1.5,5.7-1.5,8.8c0,14,11.4,25.5,25.5,25.5h51.2
			c-4.7,5.7-7,13.3-5.6,21c1.2,6.9,5.1,12.9,10.9,16.9c4.3,3,9.4,4.5,14.6,4.5c1.7,0,3.4-0.2,5.1-0.5l43.8-8.6
			c17.6-3.4,33.5-12,46.2-24.6l15.1-15.1h51.3c3.7,9.4,13,16.2,23.7,16.2c2.9,0,5.7-0.5,8.3-1.4c3,10.7,12.9,18.6,24.6,18.6
			c3.1,0,6.1-0.5,8.8-1.5c3.4,10,13,17.1,24.1,17.1s20.6-7.2,24.1-17.1c2.7,1,5.7,1.5,8.8,1.5c14,0,25.5-11.4,25.5-25.5v-51.2
			c5.7,4.7,13.3,7,21,5.6c6.9-1.2,12.9-5.1,16.9-10.9S488.7,377.6,487.4,370.7z M216.1,143.4v-24.7V91h53.5c2.4,0,4.7-1,6.4-2.6
			l17.8-17.8c10.1-10.1,22.8-16.9,36.9-19.7l43.8-8.6c2.1-0.4,4.2,0,5.9,1.2s2.9,3,3.3,5.1c0.7,4-1.8,7.9-5.8,8.9L359.5,62
			c-5.7,1.4-9.4,6.7-8.7,12.5c0.7,5.8,5.5,10.1,11.4,10.1h84.6c4.1,0,7.4,3.4,7.4,7.4c0,3.8-2.8,6.9-6.5,7.3l-50.1,0.1
			c-5,0-9.1,4.1-9.1,9.1c0,5,4.1,9.1,9.1,9.1l64.8-0.1c4.1,0,7.4,3.4,7.4,7.4s-3.4,7.4-7.4,7.4h-64.8c-5,0-9.1,4.1-9.1,9.1
			s4.1,9.1,9.1,9.1h50.2c3.6,0.5,6.5,3.5,6.5,7.3c0,4.1-3.4,7.4-7.4,7.4h-49.3c-5,0-9.1,4.1-9.1,9.1c0,5,4.1,9.1,9.1,9.1h33
			c3.6,0.5,6.5,3.5,6.5,7.3c0,4.1-3.4,7.4-7.4,7.4h-91.5c-19.2,0-37.1-7.5-50.7-21L276,165.6c-1.7-1.7-4-2.6-6.4-2.6h-53.5V143.4
			L216.1,143.4z M70.6,218.2c-10.1-10.1-16.9-22.8-19.7-36.9l-8.6-43.8c-0.5-2.1,0-4.2,1.2-5.9c1.2-1.7,3-2.9,5.1-3.3
			c4-0.7,7.9,1.8,8.9,5.8l4.4,18.2c1.4,5.7,6.7,9.3,12.5,8.7c5.9-0.7,10.1-5.5,10.1-11.4V65c0-4.1,3.4-7.4,7.4-7.4
			c3.8,0,6.9,2.8,7.3,6.5l0.1,50.1c0,5,4.1,9.1,9.1,9.1c5,0,9.1-4.1,9.1-9.1V65c0-0.5,0-1.1-0.1-1.6V49.6c0-4.1,3.4-7.4,7.4-7.4
			c4.1,0,7.4,3.4,7.4,7.4v14c0,0.5-0.1,1.1-0.1,1.6l0.1,49.3c0,5,4.1,9.1,9.1,9.1s9.1-4.1,9.1-9.1V64.2c0.5-3.6,3.5-6.5,7.3-6.5
			c4.1,0,7.4,3.4,7.4,7.4c0,0,0,44,0,44.4v4.9c0,5,4.1,9.1,9.1,9.1c5,0,9.1-4.1,9.1-9.1v-33c0.5-3.6,3.5-6.5,7.3-6.5
			c4.1,0,7.4,3.4,7.4,7.4v91.5c0,18.8-7.7,37.4-21,50.7L165.5,236c-1.7,1.7-2.6,4-2.6,6.4v53.5h-18.1v-24.1c0-5-4.1-9.1-9.1-9.1
			c-5,0-9.1,4.1-9.1,9.1v24H91.1v-53.5c0-2.4-1-4.7-2.6-6.4L70.6,218.2z M295.8,420.8h-53.5l0,0c-2.4,0-4.7,1-6.4,2.6l-17.8,17.8
			c-10.1,10.1-22.8,16.9-36.9,19.7l-43.8,8.6c-2.1,0.5-4.2,0-5.9-1.2c-1.7-1.2-2.9-3-3.3-5.1c-0.7-4,1.8-7.9,5.8-8.9l18.2-4.4
			c5.7-1.4,9.3-6.7,8.7-12.5c-0.7-5.9-5.5-10.1-11.4-10.1H65.1c-4.1,0-7.4-3.4-7.4-7.4c0-3.8,2.9-6.9,6.5-7.3l50.1-0.1
			c5,0,9.1-4.1,9.1-9.1c0-5-4.1-9.1-9.1-9.1l-64.8,0.1c-4.1,0-7.4-3.4-7.4-7.4s3.4-7.4,7.4-7.4h64.8c5,0,9.1-4.1,9.1-9.1
			s-4.1-9.1-9.1-9.1h-50c-3.6-0.5-6.5-3.5-6.5-7.3c0-4.1,3.4-7.4,7.4-7.4h49.3c5,0,9.1-4.1,9.1-9.1c0-5-4.1-9.1-9.1-9.1h-33
			c-3.6-0.5-6.5-3.5-6.5-7.3c0-4.1,3.4-7.4,7.4-7.4h91.5c19.2,0,37.1,7.5,50.7,21l11.5,11.5c1.7,1.7,4,2.6,6.4,2.6H296v71.9H295.8z
			 M296.1,331h-49.9l-8.8-8.9c-15.3-15.3-35.2-24.5-56.4-26.1v-49.9l8.9-8.8c15-15,24.4-35.3,26.1-56.4h49.9l8.8,8.9
			c15.3,15.3,35.2,24.5,56.4,26.1v49.9l-8.9,8.8C306.9,289.8,297.7,309.7,296.1,331z M468.4,380.1c-1.2,1.7-3,2.9-5.1,3.3
			c-4,0.7-7.9-1.8-8.9-5.8l-4.4-18.2c-1.4-5.7-6.7-9.3-12.5-8.7c-5.9,0.7-10.1,5.5-10.1,11.4v84.6c0,4.1-3.4,7.4-7.4,7.4
			c-3.8,0-6.9-2.9-7.3-6.5l-0.1-50.1c0-5-4.1-9.1-9.1-9.1s-9.1,4.1-9.1,9.1l0.1,64.8c0,4.1-3.4,7.4-7.4,7.4s-7.4-3.4-7.4-7.4v-64.8
			c0-5-4.1-9.1-9.1-9.1s-9.1,4.1-9.1,9.1v50.1c-0.5,3.6-3.5,6.5-7.3,6.5c-4.1,0-7.4-3.4-7.4-7.4v-49.3c0-5-4.1-9.1-9.1-9.1
			s-9.1,4.1-9.1,9.1v33c-0.5,3.6-3.5,6.5-7.3,6.5c-4.1,0-7.4-3.4-7.4-7.4v-36.4v-24.7V338c0-19.2,7.5-37.1,21-50.7l11.5-11.5
			c1.7-1.7,2.6-4,2.6-6.4v-53.5h19.3H384v27.5c0,5,4.1,9.1,9.1,9.1c5,0,9.1-4.1,9.1-9.1v-27.3h18.8v53.5c0,2.4,1,4.7,2.6,6.4
			l17.8,17.8c10.1,10.1,16.9,22.8,19.7,36.9l8.6,43.8C470.1,376.3,469.6,378.4,468.4,380.1z"/>
	</g>
</g>
</svg>
